<?xml version="1.0" encoding="UTF-8" standalone="no"?>
<!-- Created with Inkscape (http://www.inkscape.org/) -->

<svg
   xmlns:dc="http://purl.org/dc/elements/1.1/"
   xmlns:cc="http://creativecommons.org/ns#"
   xmlns:rdf="http://www.w3.org/1999/02/22-rdf-syntax-ns#"
   xmlns:svg="http://www.w3.org/2000/svg"
   xmlns="http://www.w3.org/2000/svg"
   xmlns:sodipodi="http://sodipodi.sourceforge.net/DTD/sodipodi-0.dtd"
   xmlns:inkscape="http://www.inkscape.org/namespaces/inkscape"
   width="190.024"
   height="199.97701"
   viewBox="0 0 50.277183 52.910584"
   version="1.1"
   id="svg905"
   inkscape:version="0.92.4 5da689c313, 2019-01-14"
   sodipodi:docname="LogoAWiki.svg">
  <defs
     id="defs899" />
  <sodipodi:namedview
     id="base"
     pagecolor="#ffffff"
     bordercolor="#666666"
     borderopacity="1.0"
     inkscape:pageopacity="0.0"
     inkscape:pageshadow="2"
     inkscape:zoom="1.4"
     inkscape:cx="167.7258"
     inkscape:cy="986.84937"
     inkscape:document-units="px"
     inkscape:current-layer="layer1"
     showgrid="false"
     units="px"
     objecttolerance="5"
     gridtolerance="5"
     guidetolerance="10"
     showguides="true"
     inkscape:guide-bbox="true"
     inkscape:window-width="1366"
     inkscape:window-height="702"
     inkscape:window-x="0"
     inkscape:window-y="27"
     inkscape:window-maximized="1" />
  <metadata
     id="metadata902">
    <rdf:RDF>
      <cc:Work
         rdf:about="">
        <dc:format>image/svg+xml</dc:format>
        <dc:type
           rdf:resource="http://purl.org/dc/dcmitype/StillImage" />
        <dc:title></dc:title>
      </cc:Work>
    </rdf:RDF>
  </metadata>
  <g
     inkscape:label="Capa 1"
     inkscape:groupmode="layer"
     id="layer1"
     transform="translate(0,-244.08941)">
    <g
       id="layer1-3"
       inkscape:label="Capa 1"
       transform="matrix(0.31431846,0,0,0.30930775,2.1143473,-41.734228)">
      <path
         inkscape:connector-curvature="0"
         d="m 54.805637,178.2684 c 0,-10.22268 -8.28711,-18.50979 -18.509779,-18.50979 -2.296837,-0.0744 -4.594812,0.2976 -6.760404,1.11795 m -4.984863,2.92203 c -2.353124,1.97052 -4.318715,4.66194 -5.625903,8.07804 m -0.77577,2.74476 a 18.509782,18.509782 0 0 0 -0.362843,3.64701 m 43.391784,0 c 0,-1.25439 -0.09282,-2.48712 -0.27198,-3.69165 m -0.618063,-2.92746 c -0.346161,-1.25751 -0.788541,-2.47518 -1.318731,-3.64455 M 56.54786,163.80927 C 52.034597,157.4991 44.645516,153.3864 36.295855,153.3864 29.47167,153.80985 24.288878,155.60124 20.06279,159.411 m -5.094359,5.9727 a 24.882003,24.882003 0 0 1 2.182478,-2.95674 m -3.559545,5.66202 A 24.882003,24.882003 0 0 0 11.41385,178.2684 m 42.189963,-13.17363 a 21.695894,21.695894 0 0 1 4.343043,13.1886 M 47.726579,159.85752 a 21.695894,21.695894 0 0 1 2.976495,2.15175 m -5.658459,-3.5946 a 21.695894,21.695894 0 0 0 -8.748757,-1.84218 21.695894,21.695894 0 0 0 -21.695895,21.69591 m 33.009712,-10.37277 a 15.323672,15.323672 0 0 1 3.995955,10.37814 m -9.411165,-14.17761 a 15.323672,15.323672 0 0 1 3.196917,1.86849 m -7.733038,-2.95923 a 15.323672,15.323672 0 0 0 -1.362486,-0.0606 15.323672,15.323672 0 0 0 -15.323674,15.32367 m 24.260093,-8.21958 v 0 a 12.137563,12.137563 0 0 1 3.208617,8.21667 m -7.418895,-11.09184 a 12.137563,12.137563 0 0 1 2.165391,1.00518 m -4.016419,-1.70265 a 12.137563,12.137563 0 0 0 -2.875113,-0.34545 12.137563,12.137563 0 0 0 -12.137562,12.13758 m 37.019563,26.35929 v 12.4674 m 0,2.92674 v 3.64362 m 0,4.19271 v 3.02307 m -3.186108,-14.09604 v 9.08388 m 0,2.92674 v 2.08542 m -3.186114,-9.66486 v 9.66486 m -3.186108,-6.66045 v 6.66045 m -3.186111,-4.56684 v 4.56684 m 86.783572,-26.25354 v 13.89219 m 0,4.19271 v 3.64362 m 0,2.92674 v 1.59828 m -3.18611,-26.25354 v 3.27123 m 0,2.92674 v 3.64362 m -1e-5,4.19271 1e-5,12.21924 m -3.18611,-26.25354 v 26.25354 m -3.18611,-26.25354 v 13.89219 m 0,4.19271 v 3.64362 m 0,2.92674 v 1.59828 m -3.18611,-26.25354 v 26.25354 m 6.37221,0 a 18.509782,18.509782 0 0 1 -5.93358,13.58127 m -3.38288,2.48406 a 18.509782,18.509782 0 0 1 -3.41555,1.51959 m -3.10536,0.73092 a 18.509782,18.509782 0 0 1 -2.67241,0.1941 18.509782,18.509782 0 0 1 -14.80026,-7.39383 m 39.68227,-11.11596 a 24.882003,24.882003 0 0 1 -1.50914,8.53368 m -1.51159,3.34902 a 24.882003,24.882003 0 0 1 -1.7114,2.71512 m -1.65249,2.04432 a 24.882003,24.882003 0 0 1 -18.49739,8.23986 24.882003,24.882003 0 0 1 -4.74394,-0.45642 m -4.06709,-1.15587 a 24.882003,24.882003 0 0 1 -3.307494,-1.53828 m -2.504277,-1.59966 a 24.882003,24.882003 0 0 1 -3.907005,-3.52575 m 40.225706,-16.60602 a 21.695894,21.695894 0 0 1 -21.6959,21.69591 21.695894,21.695894 0 0 1 -16.509921,-7.61991 m 31.833601,-14.076 a 15.323672,15.323672 0 0 1 -15.32368,15.32367 15.323672,15.323672 0 0 1 -13.334019,-7.77261 m 25.471589,-7.55106 v 0 a 12.137562,12.137562 0 0 1 -3.57647,8.60397 m -3.454,2.40684 a 12.137562,12.137562 0 0 1 -3.61898,1.03518 m -3.42833,-0.0645 A 12.137562,12.137562 0 0 1 98.197427,230.88138 m 0,-26.25354 v 12.00564 m 0,2.92674 3e-6,3.64362 m -3e-6,4.19274 v 3.4848 m -3.186105,-26.25354 v 26.25354 m -3.186117,-26.25354 3e-6,0.57624 m 0,2.92698 v 3.64362 m 6e-6,4.19247 -9e-6,14.91423 m -3.186111,-26.25354 v 14.66082 m 0,4.19274 v 3.64335 m 0,2.92698 v 0.82965 m -3.186108,-26.25354 v 3.63018 m 0,4.19271 v 3.64362 m 6e-6,2.92674 -6e-6,11.86029 m 6.372213,0 a 18.509782,18.509782 0 0 1 -1.686057,7.71846 m -2.2305,3.66792 a 18.509782,18.509782 0 0 1 -2.516472,2.6409 m -2.406093,1.75533 a 18.509782,18.509782 0 0 1 -9.670656,2.72718 18.509782,18.509782 0 0 1 -18.509784,-18.50979 m 43.39179,0 a 24.882003,24.882003 0 0 1 -24.882006,24.882 24.882003,24.882003 0 0 1 -13.517181,-3.9918 m -2.362923,-1.7346 A 24.882003,24.882003 0 0 1 54.764,247.46328 M 52.105433,243.891 a 24.882003,24.882003 0 0 1 -3.672015,-13.00962 m 46.577898,0 a 21.695894,21.695894 0 0 1 -8.304387,17.06985 m -2.429346,1.65294 a 21.695894,21.695894 0 0 1 -3.296958,1.57392 m -4.180734,1.11753 a 21.695894,21.695894 0 0 1 -3.48447,0.2817 21.695894,21.695894 0 0 1 -21.695892,-21.69591 m 37.019565,0 a 15.323672,15.323672 0 0 1 -15.323673,15.32367 15.323672,15.323672 0 0 1 -3.930684,-0.5127 m -4.069023,-1.74117 a 15.323672,15.323672 0 0 1 -2.866362,-2.265 m -1.878279,-2.2962 a 15.323672,15.323672 0 0 1 -2.579322,-8.5086 m 27.461235,0 v 0 A 12.137563,12.137563 0 0 1 73.315424,243.01899 12.137563,12.137563 0 0 1 61.177859,230.88141 m 0,-52.50708 v 12.61623 m 0,4.19274 v 3.64362 m 0,2.92674 v 2.87421 m -3.186108,-26.25354 v 26.25354 m -3.186114,-26.25354 v 3.98238 m 0,4.19271 v 3.64338 m 0,2.92698 v 11.50809 m -3.186108,-26.25354 v 26.25354 m -3.165156,-26.19435 v 7.42338 m 3e-6,4.19271 -3e-6,3.64338 m 0,2.92698 v 8.06709 m -30.668298,-0.0591 a 18.509782,18.509782 0 0 1 18.509783,-18.50979 18.509782,18.509782 0 0 1 12.145855,4.54233 m -36.88069,11.26521 a 24.882003,24.882003 0 0 1 0.677248,-3.64965 m 1.522785,-4.19784 a 24.882003,24.882003 0 0 1 22.534802,-14.33226 24.882003,24.882003 0 0 1 12.143308,3.1644 m -33.839203,21.7176 a 21.695894,21.695894 0 0 1 7.865941,-16.7166 m 2.209255,-1.60473 a 21.695894,21.695894 0 0 1 3.661455,-1.86189 m 4.204758,-1.18536 a 21.695894,21.695894 0 0 1 3.754486,-0.32733 21.695894,21.695894 0 0 1 12.140953,3.71511 m -27.464627,17.9808 a 15.323672,15.323672 0 0 1 14.04661,-15.27036 m 2.928891,0.036 a 15.323672,15.323672 0 0 1 3.654917,0.85893 m 4.21097,2.36595 a 15.323672,15.323672 0 0 1 2.627832,2.66604 m -24.283108,9.34347 a 12.137562,12.137562 0 0 1 0.215007,-2.27445 m 1.655257,-4.1988 a 12.137562,12.137562 0 0 1 10.267299,-5.6643 12.137562,12.137562 0 0 1 12.137559,12.13755 m 6.372219,0 A 18.509782,18.509782 0 0 1 36.465513,223.137 m -4.199406,-0.44322 a 18.509782,18.509782 0 0 1 -3.65578,-1.227 m -2.935075,-1.67916 a 18.509782,18.509782 0 0 1 -7.889176,-15.15963 m 43.391783,0 a 24.882003,24.882003 0 0 1 -24.882,24.882 24.882003,24.882003 0 0 1 -10.786797,-2.4597 m -3.621414,-2.13642 a 24.882003,24.882003 0 0 1 -2.824221,-2.33715 m -2.040463,-2.21121 a 24.882003,24.882003 0 0 1 -5.609109,-15.73752 m 46.577896,0 a 21.695894,21.695894 0 0 1 -1.113258,6.86052 m -1.088703,2.66304 A 21.695894,21.695894 0 0 1 36.295859,226.32387 21.695894,21.695894 0 0 1 14.599965,204.62799 m 37.019564,0 a 15.323672,15.323672 0 0 1 -4.63506,10.98036 m -3.388662,2.49279 a 15.323672,15.323672 0 0 1 -3.447624,1.3584 m -3.148098,0.47592 a 15.323672,15.323672 0 0 1 -0.704226,0.015 15.323672,15.323672 0 0 1 -15.323674,-15.32367 m 27.461233,0 v 0 a 12.137562,12.137562 0 0 1 -12.137559,12.13755 12.137562,12.137562 0 0 1 -3.748119,-0.59319 m -2.903799,-1.39191 a 12.137562,12.137562 0 0 1 -3.597018,-3.65016 m -1.66678,-4.19229 a 12.137562,12.137562 0 0 1 -0.221847,-2.31"
         style="opacity:1;fill:none;stroke:#fffadc;stroke-width:1.27444398;stroke-linecap:round;stroke-linejoin:round;stroke-miterlimit:4;stroke-dasharray:none;stroke-opacity:1"
         id="path4789" />
      <rect
         y="136.19006"
         x="-5.4223576"
         height="168.58067"
         width="157.47556"
         id="rect4813"
         style="opacity:1;fill:none;stroke:#fffadc;stroke-width:2.48028016;stroke-linecap:round;stroke-linejoin:round;stroke-miterlimit:4;stroke-dasharray:none;stroke-opacity:1" />
      <flowRoot
         transform="matrix(0.48504366,0,0,0.49755792,19.240602,-182.95988)"
         style="font-style:italic;font-variant:normal;font-weight:500;font-stretch:normal;font-size:40.00001907px;line-height:1.25;font-family:'Gargi-1.2b';-inkscape-font-specification:'Gargi-1.2b, Medium Italic';font-variant-ligatures:normal;font-variant-caps:normal;font-variant-numeric:normal;font-feature-settings:normal;text-align:start;letter-spacing:0px;word-spacing:0px;writing-mode:lr-tb;text-anchor:start;fill:#fffadc;fill-opacity:1;stroke:none;stroke-width:0.21497202"
         id="flowRoot4815"
         xml:space="preserve"><flowRegion
           style="font-style:italic;font-variant:normal;font-weight:500;font-stretch:normal;font-size:40.00001907px;font-family:'Gargi-1.2b';-inkscape-font-specification:'Gargi-1.2b, Medium Italic';font-variant-ligatures:normal;font-variant-caps:normal;font-variant-numeric:normal;font-feature-settings:normal;text-align:start;writing-mode:lr-tb;text-anchor:start;fill:#fffadc;fill-opacity:1;stroke-width:0.21497202"
           id="flowRegion4817"><rect
             style="font-style:italic;font-variant:normal;font-weight:500;font-stretch:normal;font-size:40.00001907px;font-family:'Gargi-1.2b';-inkscape-font-specification:'Gargi-1.2b, Medium Italic';font-variant-ligatures:normal;font-variant-caps:normal;font-variant-numeric:normal;font-feature-settings:normal;text-align:start;writing-mode:lr-tb;text-anchor:start;fill:#fffadc;fill-opacity:1;stroke-width:0.21497202"
             y="914.51971"
             x="-20"
             height="300.00003"
             width="1279.9999"
             id="rect4819" /></flowRegion><flowPara
           style="font-style:italic;font-variant:normal;font-weight:500;font-stretch:normal;font-size:40.00001907px;font-family:'Gargi-1.2b';-inkscape-font-specification:'Gargi-1.2b, Medium Italic';font-variant-ligatures:normal;font-variant-caps:normal;font-variant-numeric:normal;font-feature-settings:normal;text-align:start;writing-mode:lr-tb;text-anchor:start;fill:#fffadc;fill-opacity:1;stroke-width:0.21497202"
           id="flowPara4821">acamicaWiki</flowPara><flowPara
           style="font-style:italic;font-variant:normal;font-weight:500;font-stretch:normal;font-size:40.00001907px;font-family:'Gargi-1.2b';-inkscape-font-specification:'Gargi-1.2b, Medium Italic';font-variant-ligatures:normal;font-variant-caps:normal;font-variant-numeric:normal;font-feature-settings:normal;text-align:start;writing-mode:lr-tb;text-anchor:start;fill:#fffadc;fill-opacity:1;stroke-width:0.21497202"
           id="flowPara4823" /></flowRoot>    </g>
  </g>
</svg>
